<svg width="336" height="251" viewBox="0 0 336 251" fill="none" xmlns="http://www.w3.org/2000/svg">
<path d="M116 250.5H12.5C5.87258 250.5 0.5 245.127 0.5 238.5V-78.5C0.5 -85.1274 5.87259 -90.5 12.5 -90.5H323.5C330.127 -90.5 335.5 -85.1274 335.5 -78.5V34.5C335.5 41.1274 330.127 46.5 323.5 46.5H242C235.373 46.5 230 51.8726 230 58.5V142.5C230 149.127 224.627 154.5 218 154.5H140C133.373 154.5 128 159.873 128 166.5V238.5C128 245.127 122.627 250.5 116 250.5Z" fill="white" fill-opacity="0.17"/>
</svg>
