<svg width="303" height="270" viewBox="0 0 303 270" fill="none" xmlns="http://www.w3.org/2000/svg">
<path d="M219.722 0.163818L323.222 0.163818C329.849 0.163818 335.222 5.53641 335.222 12.1638L335.222 329.164C335.222 335.791 329.849 341.164 323.222 341.164L12.2217 341.164C5.59427 341.164 0.22168 335.791 0.22168 329.164L0.22168 216.164C0.22168 209.536 5.59427 204.164 12.2217 204.164L93.7217 204.164C100.349 204.164 105.722 198.791 105.722 192.164L105.722 108.164C105.722 101.536 111.094 96.1638 117.722 96.1638L195.722 96.1638C202.349 96.1638 207.722 90.7912 207.722 84.1638L207.722 12.1638C207.722 5.53641 213.094 0.163818 219.722 0.163818Z" fill="white" fill-opacity="0.17"/>
</svg>
