<svg width="83" height="71" viewBox="0 0 83 71" fill="none" xmlns="http://www.w3.org/2000/svg">
<path d="M34.0799 50.9667C33.6623 53.6038 32.9941 56.1172 32.0752 58.5071C31.1564 60.8145 30.0288 62.8747 28.6923 64.6877C27.3559 66.5007 25.8941 67.9428 24.3071 69.0142C22.8036 70.0031 21.2583 70.4975 19.6712 70.4975C16.6642 70.4975 13.5736 70.0443 10.3996 69.1378C7.309 68.2313 4.88667 66.7067 3.13257 64.5641C2.6314 63.8224 2.13022 62.9571 1.62905 61.9682C1.12788 60.9793 0.752002 59.7844 0.501416 58.3835C0.25083 56.9825 0.0837728 55.2932 0.000244141 53.3154C0.000244141 51.3376 0.209066 49.0301 0.626709 46.3931C1.12788 42.6023 1.9214 38.9351 3.00728 35.3915C4.09315 31.848 5.76372 28.222 8.01899 24.5136C10.3578 20.8053 13.4066 17.0145 17.1654 13.1413C21.0077 9.18567 25.8941 4.94164 31.8247 0.40918L38.3399 9.4329C30.9894 14.8719 25.7271 19.6927 22.553 23.8956C19.4624 28.016 17.7083 31.642 17.2907 34.7735C17.1236 36.2568 17.583 37.4105 18.6689 38.2346C19.7548 39.0587 21.1748 39.718 22.9289 40.2124C26.6041 41.1189 29.4441 42.5611 31.4488 44.5389C33.537 46.4343 34.414 48.5769 34.0799 50.9667ZM77.9325 50.9667C77.5148 53.6038 76.8466 56.1172 75.9278 58.5071C75.009 60.8145 73.8813 62.8747 72.5449 64.6877C71.2084 66.5007 69.7467 67.9428 68.1596 69.0142C66.6561 70.0031 65.1108 70.4975 63.5238 70.4975C60.5167 70.4975 57.4262 70.0443 54.2521 69.1378C51.1615 68.2313 48.7392 66.7067 46.9851 64.5641C46.4839 63.8224 45.9828 62.9571 45.4816 61.9682C44.9804 60.9793 44.6045 59.7844 44.354 58.3835C44.1034 56.9825 43.9363 55.2932 43.8528 53.3154C43.8528 51.3376 44.0616 49.0301 44.4792 46.3931C44.9804 42.6023 45.7739 38.9351 46.8598 35.3915C47.9457 31.848 49.6163 28.222 51.8715 24.5136C54.2103 20.8053 57.2591 17.0145 61.0179 13.1413C64.8602 9.18567 69.7467 4.94164 75.6772 0.40918L82.1924 9.4329C74.8419 14.8719 69.5796 19.6927 66.4055 23.8956C63.315 28.016 61.5609 31.642 61.1432 34.7735C60.9762 36.2568 61.4356 37.4105 62.5214 38.2346C63.6073 39.0587 65.0273 39.718 66.7814 40.2124C70.4567 41.1189 73.2966 42.5611 75.3013 44.5389C77.3895 46.4343 78.2666 48.5769 77.9325 50.9667Z" fill="url(#paint0_linear_221:1481)"/>
<defs>
<linearGradient id="paint0_linear_221:1481" x1="-4.75237" y1="30.447" x2="101.194" y2="31.2581" gradientUnits="userSpaceOnUse">
<stop stop-color="#EE8B16"/>
<stop offset="1" stop-color="#EDBB0C"/>
</linearGradient>
</defs>
</svg>
