<svg width="18" height="16" viewBox="0 0 18 16" fill="none" xmlns="http://www.w3.org/2000/svg">
<path d="M17.7416 2.67219C17.1014 2.96698 16.4137 3.16617 15.6907 3.2562C16.4367 2.79234 16.9948 2.06227 17.2609 1.20222C16.56 1.63484 15.793 1.93936 14.9931 2.10253C14.4551 1.50567 13.7427 1.11006 12.9662 0.977126C12.1898 0.844189 11.3929 0.981362 10.6991 1.36735C10.0054 1.75333 9.45371 2.36654 9.1297 3.11175C8.80569 3.85697 8.7275 4.69251 8.90725 5.48864C7.48714 5.41454 6.0979 5.03096 4.82968 4.36278C3.56145 3.69461 2.4426 2.75678 1.54572 1.61015C1.23905 2.1599 1.06272 2.79728 1.06272 3.4761C1.06238 4.08719 1.20718 4.68892 1.48429 5.2279C1.7614 5.76688 2.16224 6.22645 2.65125 6.56582C2.08413 6.54707 1.52952 6.38782 1.03358 6.10133V6.14913C1.03353 7.00621 1.31881 7.83691 1.84103 8.50029C2.36324 9.16366 3.09022 9.61884 3.89862 9.78861C3.37252 9.93657 2.82094 9.95837 2.28555 9.85234C2.51363 10.5898 2.95791 11.2347 3.5562 11.6967C4.15448 12.1587 4.87682 12.4148 5.62209 12.429C4.35696 13.4611 2.79453 14.0209 1.18615 14.0185C0.901244 14.0185 0.616577 14.0012 0.333618 13.9667C1.96622 15.0575 3.86668 15.6365 5.80762 15.6342C12.378 15.6342 15.9698 9.97902 15.9698 5.07434C15.9698 4.91499 15.966 4.75405 15.9591 4.59471C16.6577 4.06964 17.2608 3.41945 17.74 2.67458L17.7416 2.67219Z" fill="#F68B00"/>
</svg>
