<svg width="18" height="18" viewBox="0 0 18 18" fill="none" xmlns="http://www.w3.org/2000/svg">
<path d="M4.15661 17.2685V5.97986H0.546088V17.2685H4.15661ZM2.35182 4.43766C3.61087 4.43766 4.39457 3.57083 4.39457 2.48757C4.37111 1.37989 3.61092 0.537109 2.37571 0.537109C1.14069 0.537109 0.333069 1.3799 0.333069 2.48757C0.333069 3.57088 1.11658 4.43766 2.32825 4.43766H2.3517H2.35182ZM6.15502 17.2685H9.76554V10.9644C9.76554 10.627 9.789 10.2899 9.88435 10.0488C10.1454 9.37467 10.7394 8.6765 11.7368 8.6765C13.0433 8.6765 13.566 9.71171 13.566 11.2292V17.2684H17.1763V10.7956C17.1763 7.32819 15.395 5.71483 13.0195 5.71483C11.0718 5.71483 10.2166 6.84624 9.74152 7.61684H9.76562V5.97962H6.1551C6.20249 7.03889 6.1551 17.2683 6.1551 17.2683L6.15502 17.2685Z" fill="#F68B00"/>
</svg>
