<svg width="50" height="39" viewBox="0 0 50 39" fill="none" xmlns="http://www.w3.org/2000/svg">
<path d="M48.5281 2.57379C45.4977 1.20736 42.4648 0.6875 39.4336 0.6875C29.8109 0.68666 20.1891 5.92309 10.5664 5.92309C8.15312 5.92309 5.74141 5.59387 3.32812 4.77082C3.05703 4.67844 2.78516 4.63477 2.51953 4.63477C1.175 4.63477 0 5.75344 0 7.30631V33.9512C0 35.0119 0.564844 36.0172 1.47187 36.4254C4.50234 37.7926 7.53516 38.3125 10.5664 38.3125C20.1891 38.3125 29.8117 33.0761 39.4344 33.0761C41.8477 33.0761 44.2594 33.4053 46.6727 34.2283C46.9437 34.3207 47.2156 34.3644 47.4813 34.3644C48.8258 34.3644 50.0008 33.2457 50.0008 31.6929V5.04881C50 3.98725 49.4352 2.98279 48.5281 2.57379ZM25 27.5625C21.5477 27.5625 18.75 23.952 18.75 19.5C18.75 15.0471 21.5484 11.4375 25 11.4375C28.4516 11.4375 31.25 15.0471 31.25 19.5C31.25 23.9537 28.4508 27.5625 25 27.5625Z" fill="#F68B00"/>
</svg>
