<svg width="44" height="32" viewBox="0 0 44 32" fill="none" xmlns="http://www.w3.org/2000/svg">
<path d="M30 0.000244141C30.5304 0.000244141 31.0391 0.210958 31.4142 0.586031C31.7893 0.961104 32 1.46981 32 2.00024V10.4002L42.426 3.10024C42.5759 2.99516 42.7518 2.93324 42.9345 2.92125C43.1172 2.90925 43.2997 2.94764 43.462 3.03223C43.6244 3.11682 43.7604 3.24436 43.8553 3.40095C43.9502 3.55754 44.0002 3.73716 44 3.92024V28.0802C44.0002 28.2633 43.9502 28.443 43.8553 28.5995C43.7604 28.7561 43.6244 28.8837 43.462 28.9683C43.2997 29.0528 43.1172 29.0912 42.9345 29.0792C42.7518 29.0672 42.5759 29.0053 42.426 28.9002L32 21.6002V30.0002C32 30.5307 31.7893 31.0394 31.4142 31.4145C31.0391 31.7895 30.5304 32.0002 30 32.0002H2C1.46957 32.0002 0.960859 31.7895 0.585786 31.4145C0.210714 31.0394 0 30.5307 0 30.0002V2.00024C0 1.46981 0.210714 0.961104 0.585786 0.586031C0.960859 0.210958 1.46957 0.000244141 2 0.000244141H30ZM12.8 9.65825C12.6156 9.65821 12.4368 9.72189 12.2939 9.83851C12.1511 9.95514 12.0529 10.1175 12.016 10.2982L12 10.4562V21.5402C12 21.6698 12.0314 21.7974 12.0916 21.9121C12.1518 22.0268 12.239 22.1252 12.3456 22.1988C12.4523 22.2724 12.5752 22.319 12.7038 22.3345C12.8324 22.3501 12.9629 22.3342 13.084 22.2882L13.23 22.2162L21.94 16.6722C22.0416 16.6072 22.1272 16.5201 22.1904 16.4173C22.2536 16.3145 22.2927 16.1988 22.3048 16.0787C22.3169 15.9587 22.3018 15.8375 22.2604 15.7241C22.219 15.6108 22.1526 15.5083 22.066 15.4242L21.94 15.3242L13.23 9.78024C13.101 9.70025 12.9518 9.65863 12.8 9.66024V9.65825Z" fill="#F68B00"/>
</svg>
